{"title":"Muse - Live at Glastonbury Festival 2010 WEBRip 720p h264-[f1d]","uid":12228703,"size":2096537707,"categoryP":"video","categoryS":"music_videos","magnet":"?xt=urn:btih:8ae68ce825f70a99e5177d82b07a8ccfa980cf16&amp;dn=Muse+-+Live+at+Glastonbury+Festival+2010+WEBRip+720p+h264-%5Bf1d%5D&amp;tr=udp%3A%2F%2Ftracker.openbittorrent.com%3A80&amp;tr=udp%3A%2F%2Fopen.demonii.com%3A1337&amp;tr=udp%3A%2F%2Ftracker.coppersurfer.tk%3A6969&amp;tr=udp%3A%2F%2Fexodus.desync.com%3A6969","seeders":0,"leechers":0,"uploader":"F1_Dance","files":1,"time":1439522731,"description":"Muse - Live at Glastonbury Festival 2010\n\n\n\nSetlist: \n\nUprising \nSupermassive Black Hole \nNew Born \nMap of the Problematique \nGuiding Light \nCitizen Erased \nNishe \nUnited States Of Eurasia \nFeeling Good (Leslie Bricusse &amp; Anthony Newley cover) \nUndisclosed Desires \nResistance \nHysteria \nTime Is Running Out \nStarlight \nStockholm Syndrome \nEncore:\nWhere The Streets Have No Name (U2 cover) (with The Edge) \nPlug In Baby \nKnights of Cydonia\n\n\n==========\n\nGeneral\nComplete name : Muse.-.Live.at.Glastonbury.Festival.2010.WEBRip.720p.h264-[f1d].MP4\nFormat : MPEG-4\nFormat profile : Base Media / Version 2\nCodec ID : mp42\nFile size : 1.95 GiB\nDuration : 1h 41mn\nOverall bit rate mode : Variable\nOverall bit rate : 2 750 Kbps\nEncoded date : UTC 2014-02-19 13:09:23\nTagged date : UTC 2014-02-19 13:09:23\ngsst : 0\ngstd : 6098975\ngssd : B3DF503CBHH1426258368251874\ngshh : r8---sn-x5jjxnn-ogul.googlevideo.com\n\nVideo\nID : 1\nFormat : AVC\nFormat/Info : Advanced Video Codec\nFormat profile : &lt;a class=&quot;__cf_email__&quot; href=&quot;/cdn-cgi/l/email-protection&quot; data-cfemail=&quot;377f5e505f777b041906&quot;&gt;[email&amp;#160;protected]&lt;/a&gt;&lt;script data-cfhash='f9e31' type=&quot;text/javascript&quot;&gt;\n/* &lt;![CDATA[ */!function(){try{var t=&quot;currentScript&quot;in document?document.currentScript:function(){for(var t=document.getElementsByTagName(&quot;script&quot;),e=t.length;e--;)if(t[e].getAttribute(&quot;data-cfhash&quot;))return t[e]}();if(t&amp;&amp;t.previousSibling){var e,r,n,i,c=t.previousSibling,a=c.getAttribute(&quot;data-cfemail&quot;);if(a){for(e=&quot;&quot;,r=parseInt(a.substr(0,2),16),n=2;a.length-n;n+=2)i=parseInt(a.substr(n,2),16)^r,e+=String.fromCharCode(i);e=document.createTextNode(e),c.parentNode.replaceChild(e,c)}t.parentNode.removeChild(t);}}catch(u){}}()/* ]]&gt; */&lt;/script&gt;\nFormat settings, CABAC : Yes\nFormat settings, ReFrames : 1 frame\nFormat settings, GOP : M=1, N=60\nCodec ID : avc1\nCodec ID/Info : Advanced Video Coding\nDuration : 1h 41mn\nBit rate : 2 556 Kbps\nMaximum bit rate : 9 146 Kbps\nWidth : 1 280 pixels\nHeight : 720 pixels\nDisplay aspect ratio : 16:9\nFrame rate mode : Constant\nFrame rate : 25.000 fps\nColor space : YUV\nChroma subsampling : 4:2:0\nBit depth : 8 bits\nScan type : Progressive\nBits/(Pixel*Frame) : 0.111\nStream size : 1.81 GiB (93%)\nEncoded date : UTC 1904-01-01 00:00:00\nTagged date : UTC 2014-02-19 13:11:51\n\nAudio\nID : 2\nFormat : AAC\nFormat/Info : Advanced Audio Codec\nFormat profile : LC\nCodec ID : 40\nDuration : 1h 41mn\nBit rate mode : Variable\nBit rate : 192 Kbps\nMaximum bit rate : 202 Kbps\nChannel(s) : 2 channels\nChannel positions : Front: L R\nSampling rate : 44.1 KHz\nCompression mode : Lossy\nStream size : 140 MiB (7%)\nTitle : IsoMedia File Produced by Google, 5-11-2011\nEncoded date : UTC 2014-02-19 13:11:04\nTagged date : UTC 2014-02-19 13:11:51","torrent":{"xt":"urn:btih:8ae68ce825f70a99e5177d82b07a8ccfa980cf16","amp;dn":"Muse+-+Live+at+Glastonbury+Festival+2010+WEBRip+720p+h264-%5Bf1d%5D","amp;tr":["udp%3A%2F%2Ftracker.openbittorrent.com%3A80","udp%3A%2F%2Fopen.demonii.com%3A1337","udp%3A%2F%2Ftracker.coppersurfer.tk%3A6969","udp%3A%2F%2Fexodus.desync.com%3A6969"],"infoHash":"8ae68ce825f70a99e5177d82b07a8ccfa980cf16","infoHashBuffer":{"type":"Buffer","data":[138,230,140,232,37,247,10,153,229,23,125,130,176,122,140,207,169,128,207,22]},"announce":[],"urlList":[]}}